<?xml version="1.0" standalone="no"?><!DOCTYPE svg PUBLIC "-//W3C//DTD SVG 1.1//EN" "http://www.w3.org/Graphics/SVG/1.1/DTD/svg11.dtd"><svg width="241.40625" height="200" viewBox="0 0 241.40625 200" version="1.1" xmlns="http://www.w3.org/2000/svg" xmlns:xlink="http://www.w3.org/1999/xlink"><defs><style type="text/css"><![CDATA[
@font-face { font-family: ifont; src: url("//at.alicdn.com/t/font_1442373896_4754455.eot?#iefix") format("embedded-opentype"), url("//at.alicdn.com/t/font_1442373896_4754455.woff") format("woff"), url("//at.alicdn.com/t/font_1442373896_4754455.ttf") format("truetype"), url("//at.alicdn.com/t/font_1442373896_4754455.svg#ifont") format("svg"); }

]]></style></defs><g class="transform-group"><g transform="scale(0.1953125, 0.1953125)"><path d="M879.886936 1023.996575 706.030252 1023.996575c-11.771901 0-21.300608-9.54889-21.300608-21.300608l0-89.153676c-20.488293-0.041833-50.691462-0.041833-66.9166 0.041833-19.053012 0.043056-62.840347 0.043056-89.257035 0.021528l0 89.090315c0 11.751718-9.526873 21.300608-21.300486 21.300608L330.529622 1023.996575c-8.736086 0-26.188564-4.88918-34.904835-13.687892-7.362453-7.113413-11.606526-17.202216-11.606526-28.081805L284.018261 846.16822C194.531879 789.922168 127.136281 711.375679 92.793987 623.263664l-80.437895-37.234262C4.825819 582.534282 0 575.004131 0 566.704599L0 385.298683c0-11.752207 9.527484-21.30122 21.300608-21.30122l70.452941 0C117.23487 299.680735 159.64845 235.509689 206.492516 190.204752l-4.139002-6.239572c-62.591308-94.042244-77.089068-120.355573-67.770626-140.116929 5.783203-12.271937 20.239743-20.155098 44.16114-24.086771 49.423512-8.153851 164.182784 0.103237 253.980955 86.510748 52.086134-11.148322 137.163068-19.177899 184.984212-19.177899 35.193873 0 69.622156 2.620789 102.342266 7.80023 11.607138 1.830002 19.553048 12.729896 17.700295 24.357339-1.809697 11.627932-12.688064 19.616287-24.358562 17.722924-30.513735-4.825819-62.714237-7.279399-95.683999-7.279399-48.175377 0-140.157661 9.026347-186.52273 20.654401-7.322944 1.85153-15.227022-0.395455-20.531227-5.906255-84.493966-87.781878-199.502889-90.06935-233.034703-81.228682 9.880495 21.528609 40.666021 67.811235 60.198764 97.140196l14.269026 21.508427c5.866257 8.903906 4.243462 20.780267-3.805685 27.790932-49.777868 43.349436-97.557791 115.113383-121.728717 182.799365-3.016733 8.487535-11.045086 14.144751-20.052351 14.144751L42.600482 406.598557 42.600482 553.079945l76.008143 35.174913c5.157913 2.392543 9.130807 6.740587 11.065391 12.064608 31.160676 85.7421 97.411987 162.331866 186.585969 215.645463 6.427697 3.848741 10.35937 10.794823 10.35937 18.283141l0 145.961292c1.352227 0.375028 3.639699 1.060621 4.825207 1.22783l154.510353-0.041833 0-89.111966c0-5.658316 2.247474-11.086185 6.240673-15.079506 3.993933-3.994422 9.423025-6.219757 15.059935-6.219757l0.020916 0c0 0 82.206371 0.102625 110.329398 0 26.063678-0.167331 88.467471-0.021528 88.486553 0 11.731291 0.020305 21.23847 9.547667 21.23847 21.299263l0 89.111966 152.556076 0c0.310566-0.062138 1.143063-0.311789 2.889522-1.164714 0.187514-1.060743 0.438388-2.184725 0.770482-3.349438l0-84.597814c0-6.426474 2.913374-12.522078 7.904078-16.55711 1.643589-1.330822 163.808369-134.812724 168.781091-315.386143 0.269956-9.464124 0.123052-20.759473 0-32.116959-0.126599-11.523472-0.249651-23.089878-0.021528-33.012083-6.489713-80.873959-34.508279-154.488825-81.041658-212.919602-7.322455-9.194167-5.804242-22.590698 3.390048-29.933335 9.258629-7.342637 22.613327-5.803019 29.933213 3.391149 47.613326 59.80282 77.795089 133.522757 87.948475 214.396105 55.726445-11.771901 90.879708-43.84825 92.354987-65.001832 0.916163-13.106269-17.202216-19.615675-28.057953-22.32013-11.421948-2.850013-18.370354-14.414707-15.499914-25.834943 2.851237-11.420725 14.396237-18.409741 25.815616-15.496978 59.179854 14.789857 61.073094 54.728451 60.240475 66.626339-3.349316 47.738824-60.093571 91.648478-132.607695 104.982259 0.021528 4.785821 0.083666 9.714387 0.14458 14.623749 0.148127 11.939232 0.271179 23.837732 0 33.780853-4.928566 178.494989-141.570192 309.76966-176.684068 340.616712l0 78.483129c0 2.684028-0.49808 5.325121-1.475157 7.800107-0.37515 5.55459-1.665362 17.350343-14.104875 25.004769C901.581653 1018.921105 891.681588 1023.996575 879.886936 1023.996575L879.886936 1023.996575zM362.729513 326.49459c0 24.50302-19.926853 44.450789-44.431096 44.450789-24.544853 0-44.431096-19.947769-44.431096-44.450789 0-24.546076 19.886243-44.515373 44.431096-44.515373C342.80266 281.979217 362.729513 301.948514 362.729513 326.49459zM862.58075 362.104834c-99.825447 0-181.053518-81.207276-181.053518-181.052417C681.527232 81.228071 762.755303 0 862.58075 0c99.823123 0 181.051194 81.228071 181.051194 181.052417C1043.631944 280.897557 962.403873 362.104834 862.58075 362.104834L862.58075 362.104834zM862.58075 42.600482c-76.342438 0-138.454748 62.11231-138.454748 138.451935 0 76.340726 62.11231 138.453035 138.454748 138.453035 76.340237 0 138.452546-62.11231 138.452546-138.453035C1001.033296 104.712792 938.920987 42.600482 862.58075 42.600482L862.58075 42.600482zM862.537816 282.99935c-37.83619 0-64.275629-23.359957-64.275629-56.7878 0-10.587616 8.592117-19.158205 19.177899-19.158205 10.589451 0 19.181568 8.570589 19.181568 19.158205 0 16.038725 16.242997 18.451084 25.916162 18.451084 9.713775 0 26.003497-2.412359 26.003497-18.451084 0-9.83805-0.875676-11.357364-27.168211-24.295813l-14.663747-7.279888c-26.002274-12.855395-48.447168-23.962618-48.447168-58.679939 0-33.614133 26.439439-57.078672 64.275629-57.078672 37.525624 0 63.734371 23.464539 63.734371 57.078672 0 10.588228-8.590894 19.177899-19.177899 19.177899-10.588105 0-19.180223-8.589671-19.180223-19.177899 0-15.496366-13.79064-18.741345-25.376249-18.741345-7.799006 0-25.916162 1.830002-25.916162 18.741345 0 9.818357 0.872006 11.335959 27.080753 24.316118l14.602955 7.239401c26.064289 12.833867 48.591626 23.921275 48.591626 58.700122C926.896988 259.639394 900.417062 282.99935 862.537816 282.99935L862.537816 282.99935zM861.705196 115.965696c-10.585781 0-19.177899-8.590283-19.177899-19.177899L842.527298 75.736963c0-10.587616 8.592117-19.157594 19.177899-19.157594 10.589328 0 19.177776 8.569978 19.177776 19.157594l0 21.050834C880.883095 107.375414 872.294525 115.965696 861.705196 115.965696L861.705196 115.965696zM861.705196 305.588213c-10.585781 0-19.177899-8.590405-19.177899-19.177899l0-21.050345c0-10.587616 8.592117-19.158205 19.177899-19.158205 10.589328 0 19.177776 8.570589 19.177776 19.158205l0 21.050345C880.883095 296.997809 872.294525 305.588213 861.705196 305.588213L861.705196 305.588213z" fill="#11cd6e"></path></g></g></svg>