<?xml version="1.0" standalone="no"?><!DOCTYPE svg PUBLIC "-//W3C//DTD SVG 1.1//EN" "http://www.w3.org/Graphics/SVG/1.1/DTD/svg11.dtd"><svg width="200" height="200" viewBox="0 0 200 200" version="1.1" xmlns="http://www.w3.org/2000/svg" xmlns:xlink="http://www.w3.org/1999/xlink"><defs><style type="text/css"><![CDATA[
@font-face { font-family: ifont; src: url("//at.alicdn.com/t/font_1442373896_4754455.eot?#iefix") format("embedded-opentype"), url("//at.alicdn.com/t/font_1442373896_4754455.woff") format("woff"), url("//at.alicdn.com/t/font_1442373896_4754455.ttf") format("truetype"), url("//at.alicdn.com/t/font_1442373896_4754455.svg#ifont") format("svg"); }

]]></style></defs><g class="transform-group"><g transform="scale(0.1953125, 0.1953125)"><path d="M960 896l-416 96 0 0-64 0 0 0L64 896c-35.328 0-64-28.672-64-64L0 96c0-35.328 28.672-64 64-64l416 96 0 0 64 0 0 0 416-96c35.328 0 64 28.672 64 64l0 736C1024 867.328 995.328 896 960 896zM480 192 64 96l0 736 416 96L480 192zM960 96l-224 51.68L736 384l-64 64L672 162.464 544 192l0 736 416-96L960 96z" fill="#a9b7b7"></path></g></g></svg>