<?xml version="1.0" standalone="no"?><!DOCTYPE svg PUBLIC "-//W3C//DTD SVG 1.1//EN" "http://www.w3.org/Graphics/SVG/1.1/DTD/svg11.dtd"><svg width="200" height="200" viewBox="0 0 200 200" version="1.1" xmlns="http://www.w3.org/2000/svg" xmlns:xlink="http://www.w3.org/1999/xlink"><defs><style type="text/css"><![CDATA[
@font-face { font-family: ifont; src: url("//at.alicdn.com/t/font_1442373896_4754455.eot?#iefix") format("embedded-opentype"), url("//at.alicdn.com/t/font_1442373896_4754455.woff") format("woff"), url("//at.alicdn.com/t/font_1442373896_4754455.ttf") format("truetype"), url("//at.alicdn.com/t/font_1442373896_4754455.svg#ifont") format("svg"); }

]]></style></defs><g class="transform-group"><g transform="scale(0.1953125, 0.1953125)"><path d="M948.750667 85.012186c-0.51677-1.119497-1.159406-2.206248-1.922792-3.254114-0.171915-0.240477-0.355087-0.461511-0.533143-0.690732-0.161682-0.203638-0.320295-0.407276-0.491187-0.606821-1.25969-1.49198-2.673899-2.726088-4.203742-3.718695-0.048095-0.031722-0.097214-0.063445-0.146333-0.095167-0.410346-0.260943-0.827855-0.506537-1.254573-0.732687-0.314155-0.171915-0.632403-0.333598-0.953721-0.488117-0.100284-0.045025-0.198521-0.092098-0.298805-0.1361-5.924943-2.735297-12.95608-2.521426-18.700921 0.651846-0.10847 0.049119-0.221034 0.088004-0.329505 0.13917-17.021675 7.961322-34.043351 15.923668-51.064003 23.88499-43.302225 20.2543-86.606497 40.508599-129.909745 60.763922-57.942667 27.102265-115.885334 54.204529-173.829024 81.306794-60.940954 28.504194-121.880885 57.008388-182.822862 85.512582-52.296063 24.461111-104.59315 48.922223-156.890236 73.383334-32.010041 14.971993-64.021106 29.945009-96.031147 44.918026-4.764514 2.228761-9.529027 4.456498-14.292518 6.685259-22.25077 10.80816-36.646642 36.180014-33.754778 60.890812 2.465145 21.069875 13.96506 39.951921 33.327036 49.631374 15.46625 7.733125 30.9325 15.465227 46.39875 23.198352 55.045687 27.52182 110.092397 55.042617 165.138084 82.564437 6.443759 3.222391 12.888542 6.444782 19.333324 9.66615 19.789719 39.579437 39.579437 79.159898 59.370179 118.740358 13.620206 27.240411 27.240411 54.480822 40.860617 81.721233 7.66354 15.32708 14.406105 33.507138 26.473955 46.022173 28.638247 29.696346 81.347726 20.819165 99.233072-16.042371 7.961322-17.022699 15.923668-34.044374 23.88499-51.065026 20.255323-43.303248 40.510646-86.60752 60.765969-129.910768 27.102265-57.942667 54.205553-115.886357 81.307817-173.830047 28.504194-60.940954 57.009412-121.881908 85.513606-182.823885 24.462135-52.297087 48.924269-104.594173 73.385381-156.89126 14.973016-32.011064 29.946033-64.021106 44.919049-96.03217 2.228761-4.764514 4.456498-9.529027 6.685259-14.292518 0.045025-0.096191 0.081864-0.193405 0.125867-0.289596C951.219905 98.087992 951.571922 91.016947 948.750667 85.012186zM125.784286 520.459672C124.907313 519.358595 123.982244 518.012947 125.784286 520.459672L125.784286 520.459672zM247.429811 583.771627c-27.242458-13.620206-54.484915-27.240411-81.727373-40.86164-8.199753-4.099365-16.399505-8.198729-24.599258-12.299117-1.859347-0.929162-3.718695-1.859347-5.578042-2.788509-0.257873-0.128937-0.515746-0.257873-0.773619-0.38681-1.755993-0.877997-3.420913-1.893116-5.052063-2.977821-0.002047-0.001023-0.004093-0.00307-0.00614-0.005117-1.190105-1.02126-2.272763-2.159176-3.334955-3.310396-0.047072-0.051165-0.099261-0.110517-0.151449-0.170892-0.687662-1.014096-1.326205-2.060939-1.933025-3.124154-0.234337-0.409322-0.584308-1.165546-0.88823-1.839905-0.283456-0.855484-0.547469-1.718131-0.791016-2.584871-0.242524-0.86367-0.426719-1.741667-0.602727-2.620687-0.010233-0.200568-0.022513-0.420579-0.039909-0.682545-0.095167-1.472538-0.057305-2.950192 0-4.423753 0.008186-0.214894 0.014326-0.402159 0.020466-0.576121 0.305969-1.623987 0.73678-3.221368 1.248434-4.793166 0.310062-0.750083 0.75213-1.802042 1.042749-2.346441 0.603751-1.134847 1.306762-2.212388 2.02717-3.275603 0.203638-0.209778 0.468674-0.490164 0.809435-0.860601 0.508583-0.553609 1.044796-1.079588 1.594311-1.592264 0.63445-0.503467 1.963725-1.572822 2.599198-1.977028 1.420349-0.904603 2.928702-1.661849 4.441149-2.396583 17.021675-7.961322 34.043351-15.923668 51.065026-23.88499 43.303248-20.2543 86.606497-40.509622 129.909745-60.763922 57.942667-27.102265 115.886357-54.204529 173.829024-81.306794 60.940954-28.504194 121.880885-57.008388 182.821839-85.512582 52.296063-24.461111 104.594173-48.922223 156.890236-73.383334 1.113357-0.520863 2.225691-1.041726 3.339048-1.561565-23.184025 23.185049-46.369074 46.370097-69.554122 69.555146-46.62797 46.628994-93.256964 93.257987-139.884934 139.886981-46.103014 46.103014-92.205005 92.207052-138.308019 138.310066-34.514071 34.514071-69.02712 69.029166-103.541191 103.542214-8.543583 8.544607-17.087167 17.087167-25.629727 25.63075C320.256466 620.183931 283.843138 601.977267 247.429811 583.771627zM746.613924 438.228833c-28.504194 60.940954-57.009412 121.882931-85.513606 182.823885-24.462135 52.297087-48.924269 104.594173-73.385381 156.89126-14.973016 32.010041-29.946033 64.021106-44.919049 96.03217-2.228761 4.764514-4.456498 9.529027-6.685259 14.292518-1.01819 2.099824-2.157129 4.093225-3.442402 6.033413-0.023536 0.026606-0.044002 0.050142-0.068562 0.078795-0.766456 0.887206-1.607614 1.706875-2.447748 2.523473-0.26606 0.258896-0.709151 0.64366-1.111311 0.988514-0.358157 0.236384-0.716314 0.472767-1.077541 0.705058-0.947582 0.610914-1.942235 1.140986-2.935865 1.671059-0.130983 0.069585-0.24764 0.13303-0.36225 0.193405-1.842974 0.670266-3.748371 1.144056-5.666046 1.540076-0.966001 0.069585-1.937119 0.093121-2.904143 0.105401-0.980327 0.013303-1.959631-0.044002-2.936889-0.106424-1.401929-0.272199-2.784416-0.635473-4.14746-1.065262-0.158612-0.166799-3.700275-1.688455-4.803399-2.360767-0.300852-0.183172-0.748037-0.490164-1.159406-0.777713-0.350994-0.315178-0.699941-0.63138-1.044796-0.951675-0.86674-0.800225-1.660826-1.675152-2.453888-2.545986-0.020466-0.021489-0.034792-0.037862-0.054235-0.059352-1.103124-1.590218-2.071172-3.289929-2.935865-5.016247-0.542352-1.085728-1.084705-2.170432-1.627057-3.25616-9.350972-18.700921-18.701944-37.403888-28.052916-56.104809-26.874067-53.748135-53.747111-107.497293-80.622202-161.245428-0.213871-0.428765-0.427742-0.856507-0.642636-1.285273 11.022031-11.022031 22.044062-22.044062 33.066093-33.066093 36.090986-36.090986 72.180949-72.180949 108.270912-108.271936 46.62797-46.628994 93.256964-93.257987 139.884934-139.886981 46.103014-46.103014 92.205005-92.207052 138.308019-138.310066 19.127639-19.127639 38.256302-38.256302 57.383942-57.384965-11.534707 24.661679-23.070438 49.323359-34.606169 73.986061C800.819476 322.341452 773.717212 380.285143 746.613924 438.228833z" fill="#11cd6e"></path></g></g></svg>