<?xml version="1.0" standalone="no"?><!DOCTYPE svg PUBLIC "-//W3C//DTD SVG 1.1//EN" "http://www.w3.org/Graphics/SVG/1.1/DTD/svg11.dtd"><svg width="200" height="200" viewBox="0 0 200 200" version="1.1" xmlns="http://www.w3.org/2000/svg" xmlns:xlink="http://www.w3.org/1999/xlink"><defs><style type="text/css"><![CDATA[
@font-face { font-family: ifont; src: url("//at.alicdn.com/t/font_1442373896_4754455.eot?#iefix") format("embedded-opentype"), url("//at.alicdn.com/t/font_1442373896_4754455.woff") format("woff"), url("//at.alicdn.com/t/font_1442373896_4754455.ttf") format("truetype"), url("//at.alicdn.com/t/font_1442373896_4754455.svg#ifont") format("svg"); }

]]></style></defs><g class="transform-group"><g transform="scale(0.1953125, 0.1953125)"><path d="M822.457258 436.032066l-340.414055 408.466898L233.682192 631.608821l41.584297-48.516844 199.164898 170.698499 298.888695-358.710386L822.457258 436.032066zM126.617286 782.09305c0 97.52516 72.634917 176.882851 161.941912 176.882851l443.282471 0c89.305996 0 161.941912-79.35769 161.941912-176.882851L893.783583 336.70684c0-86.466049-57.14457-158.516595-132.328747-173.773194 4.103589 29.765003 4.477187 53.766201 4.477187 60.82761l31.96264 0 0 63.937267L222.506206 287.698524l0-63.937267 31.974627 0c0-7.061409 0.36261-31.062608 4.477187-60.82761-75.195165 15.256599-132.340734 87.307145-132.340734 173.773194L126.617286 782.09305zM957.719851 336.70684l0 445.38621c0 132.796244-101.325076 240.808131-225.87918 240.808131L288.559199 1022.901181c-124.554104 0-225.87918-108.011887-225.87918-240.808131L62.680019 336.70684c0-127.605824 93.632345-232.028569 211.452688-240.024973C291.142422 46.142197 322.813376-0.001199 382.343381-0.001199l255.726094 0c59.518018 0 91.188972 46.143396 108.198686 96.683066C864.088505 104.678271 957.719851 209.101016 957.719851 336.70684zM701.994756 223.761257c-0.104887-52.175911-15.864945-159.825188-63.92528-159.825188L382.343381 63.936069c-48.072322 0-63.83238 107.649277-63.937267 159.825188L701.994756 223.761257z" fill="#11cd6e"></path></g></g></svg>