<?xml version="1.0" standalone="no"?><!DOCTYPE svg PUBLIC "-//W3C//DTD SVG 1.1//EN" "http://www.w3.org/Graphics/SVG/1.1/DTD/svg11.dtd"><svg width="200" height="200" viewBox="0 0 200 200" version="1.1" xmlns="http://www.w3.org/2000/svg" xmlns:xlink="http://www.w3.org/1999/xlink"><defs><style type="text/css"><![CDATA[
@font-face { font-family: ifont; src: url("//at.alicdn.com/t/font_1442373896_4754455.eot?#iefix") format("embedded-opentype"), url("//at.alicdn.com/t/font_1442373896_4754455.woff") format("woff"), url("//at.alicdn.com/t/font_1442373896_4754455.ttf") format("truetype"), url("//at.alicdn.com/t/font_1442373896_4754455.svg#ifont") format("svg"); }

]]></style></defs><g class="transform-group"><g transform="scale(0.1953125, 0.1953125)"><path d="M125.991506 470.648197 477.889111 118.881574l0 597.901439c0 18.84316 15.319917 34.092469 34.109866 34.092469 18.790972 0 34.110889-15.248286 34.110889-34.092469L546.109866 116.758214l351.897605 351.754343c13.32447 13.319353 34.908044 13.319353 48.231491 0 13.32447-13.31833 13.32447-34.893718 0-48.213072L536.116257 10.336416c-13.32447-13.319353-34.908044-13.319353-48.231491 0C485.406319 12.81077 77.760015 422.428985 77.760015 422.428985c-13.32447 13.319353-13.32447 34.893718 0 48.213072C91.083461 483.96141 112.667036 483.96141 125.991506 470.648197L125.991506 470.648197zM989.54221 682.685427c-18.851347 0-34.103726 15.248286-34.103726 34.097586l0 170.480766c0 37.6986-30.514991 68.200288-68.222801 68.200288L136.788409 955.464067c-37.70781 0-68.220754-30.501688-68.220754-68.200288L68.567655 716.783013c0-18.8493-15.326057-34.097586-34.109866-34.097586-18.851347 0-34.110889 15.248286-34.110889 34.097586l0 170.485883c0 75.314313 61.093427 136.384204 136.441509 136.384204l750.427274 0c75.350129 0 136.437415-61.069891 136.437415-136.384204L1023.653099 716.783013C1023.653099 697.933713 1008.331135 682.685427 989.54221 682.685427L989.54221 682.685427zM989.54221 682.685427" fill="#11cd6e"></path></g></g></svg>